<mxfile host="app.diagrams.net" modified="2023-09-26T21:57:37.377Z" agent="Mozilla/5.0 (Windows NT 10.0; Win64; x64) AppleWebKit/537.36 (KHTML, like Gecko) Chrome/116.0.0.0 Safari/537.36" etag="D2kL81zjwYO3f9E2pjh_" version="21.8.2" type="google">
  <diagram name="PÃ¡gina-1" id="jZJGiZbXDNDXo50cpsdY">
    <mxGraphModel grid="1" page="1" gridSize="10" guides="1" tooltips="1" connect="1" arrows="1" fold="1" pageScale="1" pageWidth="827" pageHeight="1169" math="0" shadow="0">
      <root>
        <mxCell id="0" />
        <mxCell id="1" parent="0" />
        <mxCell id="hAaeV_pmWm-LTA3YUwsU-9" value="&lt;i style=&quot;font-weight: normal;&quot;&gt;Producto&lt;/i&gt;" style="swimlane;fontStyle=1;align=center;verticalAlign=top;childLayout=stackLayout;horizontal=1;startSize=26;horizontalStack=0;resizeParent=1;resizeParentMax=0;resizeLast=0;collapsible=1;marginBottom=0;whiteSpace=wrap;html=1;" vertex="1" parent="1">
          <mxGeometry x="180" y="540" width="240" height="320" as="geometry" />
        </mxCell>
        <mxCell id="hAaeV_pmWm-LTA3YUwsU-10" value="- costoBruto: Float" style="text;strokeColor=none;fillColor=none;align=left;verticalAlign=top;spacingLeft=4;spacingRight=4;overflow=hidden;rotatable=0;points=[[0,0.5],[1,0.5]];portConstraint=eastwest;whiteSpace=wrap;html=1;" vertex="1" parent="hAaeV_pmWm-LTA3YUwsU-9">
          <mxGeometry y="26" width="240" height="26" as="geometry" />
        </mxCell>
        <mxCell id="EMDGs7AWyQJ3vSrL3r9r-25" value="- stock: int" style="text;strokeColor=none;fillColor=none;align=left;verticalAlign=top;spacingLeft=4;spacingRight=4;overflow=hidden;rotatable=0;points=[[0,0.5],[1,0.5]];portConstraint=eastwest;whiteSpace=wrap;html=1;" vertex="1" parent="hAaeV_pmWm-LTA3YUwsU-9">
          <mxGeometry y="52" width="240" height="26" as="geometry" />
        </mxCell>
        <mxCell id="EMDGs7AWyQJ3vSrL3r9r-18" value="- descuentos: Collection&amp;lt;Descuento&amp;gt;" style="text;strokeColor=none;fillColor=none;align=left;verticalAlign=top;spacingLeft=4;spacingRight=4;overflow=hidden;rotatable=0;points=[[0,0.5],[1,0.5]];portConstraint=eastwest;whiteSpace=wrap;html=1;" vertex="1" parent="hAaeV_pmWm-LTA3YUwsU-9">
          <mxGeometry y="78" width="240" height="26" as="geometry" />
        </mxCell>
        <mxCell id="hAaeV_pmWm-LTA3YUwsU-11" value="" style="line;strokeWidth=1;fillColor=none;align=left;verticalAlign=middle;spacingTop=-1;spacingLeft=3;spacingRight=3;rotatable=0;labelPosition=right;points=[];portConstraint=eastwest;strokeColor=inherit;" vertex="1" parent="hAaeV_pmWm-LTA3YUwsU-9">
          <mxGeometry y="104" width="240" height="8" as="geometry" />
        </mxCell>
        <mxCell id="hAaeV_pmWm-LTA3YUwsU-12" value="+ new(float, stock)" style="text;strokeColor=none;fillColor=none;align=left;verticalAlign=top;spacingLeft=4;spacingRight=4;overflow=hidden;rotatable=0;points=[[0,0.5],[1,0.5]];portConstraint=eastwest;whiteSpace=wrap;html=1;" vertex="1" parent="hAaeV_pmWm-LTA3YUwsU-9">
          <mxGeometry y="112" width="240" height="26" as="geometry" />
        </mxCell>
        <mxCell id="EMDGs7AWyQJ3vSrL3r9r-44" value="+ getCostoNeto(): Float" style="text;strokeColor=none;fillColor=none;align=left;verticalAlign=top;spacingLeft=4;spacingRight=4;overflow=hidden;rotatable=0;points=[[0,0.5],[1,0.5]];portConstraint=eastwest;whiteSpace=wrap;html=1;" vertex="1" parent="hAaeV_pmWm-LTA3YUwsU-9">
          <mxGeometry y="138" width="240" height="26" as="geometry" />
        </mxCell>
        <mxCell id="EMDGs7AWyQJ3vSrL3r9r-34" value="+ getDescuentos(): Collection&amp;lt;Descuento&amp;gt;" style="text;strokeColor=none;fillColor=none;align=left;verticalAlign=top;spacingLeft=4;spacingRight=4;overflow=hidden;rotatable=0;points=[[0,0.5],[1,0.5]];portConstraint=eastwest;whiteSpace=wrap;html=1;" vertex="1" parent="hAaeV_pmWm-LTA3YUwsU-9">
          <mxGeometry y="164" width="240" height="26" as="geometry" />
        </mxCell>
        <mxCell id="hAaeV_pmWm-LTA3YUwsU-14" value="+ registrar(Caja): float" style="text;strokeColor=none;fillColor=none;align=left;verticalAlign=top;spacingLeft=4;spacingRight=4;overflow=hidden;rotatable=0;points=[[0,0.5],[1,0.5]];portConstraint=eastwest;whiteSpace=wrap;html=1;" vertex="1" parent="hAaeV_pmWm-LTA3YUwsU-9">
          <mxGeometry y="190" width="240" height="26" as="geometry" />
        </mxCell>
        <mxCell id="EMDGs7AWyQJ3vSrL3r9r-35" value="+ getStock(): int" style="text;strokeColor=none;fillColor=none;align=left;verticalAlign=top;spacingLeft=4;spacingRight=4;overflow=hidden;rotatable=0;points=[[0,0.5],[1,0.5]];portConstraint=eastwest;whiteSpace=wrap;html=1;" vertex="1" parent="hAaeV_pmWm-LTA3YUwsU-9">
          <mxGeometry y="216" width="240" height="26" as="geometry" />
        </mxCell>
        <mxCell id="EMDGs7AWyQJ3vSrL3r9r-36" value="- aumentarStock(int): void" style="text;strokeColor=none;fillColor=none;align=left;verticalAlign=top;spacingLeft=4;spacingRight=4;overflow=hidden;rotatable=0;points=[[0,0.5],[1,0.5]];portConstraint=eastwest;whiteSpace=wrap;html=1;" vertex="1" parent="hAaeV_pmWm-LTA3YUwsU-9">
          <mxGeometry y="242" width="240" height="26" as="geometry" />
        </mxCell>
        <mxCell id="EMDGs7AWyQJ3vSrL3r9r-37" value="- disminuirStock(int): void" style="text;strokeColor=none;fillColor=none;align=left;verticalAlign=top;spacingLeft=4;spacingRight=4;overflow=hidden;rotatable=0;points=[[0,0.5],[1,0.5]];portConstraint=eastwest;whiteSpace=wrap;html=1;" vertex="1" parent="hAaeV_pmWm-LTA3YUwsU-9">
          <mxGeometry y="268" width="240" height="26" as="geometry" />
        </mxCell>
        <mxCell id="hAaeV_pmWm-LTA3YUwsU-30" value="+ getMontoTotalDescuentos(): float" style="text;strokeColor=none;fillColor=none;align=left;verticalAlign=top;spacingLeft=4;spacingRight=4;overflow=hidden;rotatable=0;points=[[0,0.5],[1,0.5]];portConstraint=eastwest;whiteSpace=wrap;html=1;" vertex="1" parent="hAaeV_pmWm-LTA3YUwsU-9">
          <mxGeometry y="294" width="240" height="26" as="geometry" />
        </mxCell>
        <mxCell id="hAaeV_pmWm-LTA3YUwsU-15" value="ProductoCooperativa" style="swimlane;fontStyle=1;align=center;verticalAlign=top;childLayout=stackLayout;horizontal=1;startSize=26;horizontalStack=0;resizeParent=1;resizeParentMax=0;resizeLast=0;collapsible=1;marginBottom=0;whiteSpace=wrap;html=1;" vertex="1" parent="1">
          <mxGeometry x="110" y="1040.99" width="160" height="60" as="geometry" />
        </mxCell>
        <mxCell id="hAaeV_pmWm-LTA3YUwsU-17" value="" style="line;strokeWidth=1;fillColor=none;align=left;verticalAlign=middle;spacingTop=-1;spacingLeft=3;spacingRight=3;rotatable=0;labelPosition=right;points=[];portConstraint=eastwest;strokeColor=inherit;" vertex="1" parent="hAaeV_pmWm-LTA3YUwsU-15">
          <mxGeometry y="26" width="160" height="8" as="geometry" />
        </mxCell>
        <mxCell id="hAaeV_pmWm-LTA3YUwsU-18" value="+ new(float, stock)" style="text;strokeColor=none;fillColor=none;align=left;verticalAlign=top;spacingLeft=4;spacingRight=4;overflow=hidden;rotatable=0;points=[[0,0.5],[1,0.5]];portConstraint=eastwest;whiteSpace=wrap;html=1;" vertex="1" parent="hAaeV_pmWm-LTA3YUwsU-15">
          <mxGeometry y="34" width="160" height="26" as="geometry" />
        </mxCell>
        <mxCell id="hAaeV_pmWm-LTA3YUwsU-19" value="ProductoTradicional" style="swimlane;fontStyle=1;align=center;verticalAlign=top;childLayout=stackLayout;horizontal=1;startSize=26;horizontalStack=0;resizeParent=1;resizeParentMax=0;resizeLast=0;collapsible=1;marginBottom=0;whiteSpace=wrap;html=1;" vertex="1" parent="1">
          <mxGeometry x="290" y="1040.99" width="160" height="60" as="geometry" />
        </mxCell>
        <mxCell id="hAaeV_pmWm-LTA3YUwsU-21" value="" style="line;strokeWidth=1;fillColor=none;align=left;verticalAlign=middle;spacingTop=-1;spacingLeft=3;spacingRight=3;rotatable=0;labelPosition=right;points=[];portConstraint=eastwest;strokeColor=inherit;" vertex="1" parent="hAaeV_pmWm-LTA3YUwsU-19">
          <mxGeometry y="26" width="160" height="8" as="geometry" />
        </mxCell>
        <mxCell id="hAaeV_pmWm-LTA3YUwsU-22" value="+ new(float, stock)" style="text;strokeColor=none;fillColor=none;align=left;verticalAlign=top;spacingLeft=4;spacingRight=4;overflow=hidden;rotatable=0;points=[[0,0.5],[1,0.5]];portConstraint=eastwest;whiteSpace=wrap;html=1;" vertex="1" parent="hAaeV_pmWm-LTA3YUwsU-19">
          <mxGeometry y="34" width="160" height="26" as="geometry" />
        </mxCell>
        <mxCell id="hAaeV_pmWm-LTA3YUwsU-26" value="Caja" style="swimlane;fontStyle=1;align=center;verticalAlign=top;childLayout=stackLayout;horizontal=1;startSize=26;horizontalStack=0;resizeParent=1;resizeParentMax=0;resizeLast=0;collapsible=1;marginBottom=0;whiteSpace=wrap;html=1;" vertex="1" parent="1">
          <mxGeometry x="310" y="80" width="260" height="60" as="geometry" />
        </mxCell>
        <mxCell id="hAaeV_pmWm-LTA3YUwsU-28" value="" style="line;strokeWidth=1;fillColor=none;align=left;verticalAlign=middle;spacingTop=-1;spacingLeft=3;spacingRight=3;rotatable=0;labelPosition=right;points=[];portConstraint=eastwest;strokeColor=inherit;" vertex="1" parent="hAaeV_pmWm-LTA3YUwsU-26">
          <mxGeometry y="26" width="260" height="8" as="geometry" />
        </mxCell>
        <mxCell id="hAaeV_pmWm-LTA3YUwsU-31" value="+ registrarProductos(Cliente): Float" style="text;strokeColor=none;fillColor=none;align=left;verticalAlign=top;spacingLeft=4;spacingRight=4;overflow=hidden;rotatable=0;points=[[0,0.5],[1,0.5]];portConstraint=eastwest;whiteSpace=wrap;html=1;" vertex="1" parent="hAaeV_pmWm-LTA3YUwsU-26">
          <mxGeometry y="34" width="260" height="26" as="geometry" />
        </mxCell>
        <mxCell id="hAaeV_pmWm-LTA3YUwsU-32" value="Cliente" style="swimlane;fontStyle=1;align=center;verticalAlign=top;childLayout=stackLayout;horizontal=1;startSize=26;horizontalStack=0;resizeParent=1;resizeParentMax=0;resizeLast=0;collapsible=1;marginBottom=0;whiteSpace=wrap;html=1;" vertex="1" parent="1">
          <mxGeometry x="30" y="210" width="260" height="268" as="geometry" />
        </mxCell>
        <mxCell id="hAaeV_pmWm-LTA3YUwsU-33" value="- listaProductos: List&amp;lt;Producto&amp;gt;" style="text;strokeColor=none;fillColor=none;align=left;verticalAlign=top;spacingLeft=4;spacingRight=4;overflow=hidden;rotatable=0;points=[[0,0.5],[1,0.5]];portConstraint=eastwest;whiteSpace=wrap;html=1;" vertex="1" parent="hAaeV_pmWm-LTA3YUwsU-32">
          <mxGeometry y="26" width="260" height="26" as="geometry" />
        </mxCell>
        <mxCell id="EMDGs7AWyQJ3vSrL3r9r-64" value="- listaFacturas: List&amp;lt;Factura&amp;gt;" style="text;strokeColor=none;fillColor=none;align=left;verticalAlign=top;spacingLeft=4;spacingRight=4;overflow=hidden;rotatable=0;points=[[0,0.5],[1,0.5]];portConstraint=eastwest;whiteSpace=wrap;html=1;" vertex="1" parent="hAaeV_pmWm-LTA3YUwsU-32">
          <mxGeometry y="52" width="260" height="26" as="geometry" />
        </mxCell>
        <mxCell id="hAaeV_pmWm-LTA3YUwsU-34" value="" style="line;strokeWidth=1;fillColor=none;align=left;verticalAlign=middle;spacingTop=-1;spacingLeft=3;spacingRight=3;rotatable=0;labelPosition=right;points=[];portConstraint=eastwest;strokeColor=inherit;" vertex="1" parent="hAaeV_pmWm-LTA3YUwsU-32">
          <mxGeometry y="78" width="260" height="8" as="geometry" />
        </mxCell>
        <mxCell id="hAaeV_pmWm-LTA3YUwsU-41" value="+ getProductos(): List&amp;lt;Producto&amp;gt;" style="text;strokeColor=none;fillColor=none;align=left;verticalAlign=top;spacingLeft=4;spacingRight=4;overflow=hidden;rotatable=0;points=[[0,0.5],[1,0.5]];portConstraint=eastwest;whiteSpace=wrap;html=1;" vertex="1" parent="hAaeV_pmWm-LTA3YUwsU-32">
          <mxGeometry y="86" width="260" height="26" as="geometry" />
        </mxCell>
        <mxCell id="EMDGs7AWyQJ3vSrL3r9r-65" value="+ getFacturas(): List&amp;lt;Factura&amp;gt;" style="text;strokeColor=none;fillColor=none;align=left;verticalAlign=top;spacingLeft=4;spacingRight=4;overflow=hidden;rotatable=0;points=[[0,0.5],[1,0.5]];portConstraint=eastwest;whiteSpace=wrap;html=1;" vertex="1" parent="hAaeV_pmWm-LTA3YUwsU-32">
          <mxGeometry y="112" width="260" height="26" as="geometry" />
        </mxCell>
        <mxCell id="EMDGs7AWyQJ3vSrL3r9r-11" value="+ agregarProducto(Producto): void" style="text;strokeColor=none;fillColor=none;align=left;verticalAlign=top;spacingLeft=4;spacingRight=4;overflow=hidden;rotatable=0;points=[[0,0.5],[1,0.5]];portConstraint=eastwest;whiteSpace=wrap;html=1;" vertex="1" parent="hAaeV_pmWm-LTA3YUwsU-32">
          <mxGeometry y="138" width="260" height="26" as="geometry" />
        </mxCell>
        <mxCell id="EMDGs7AWyQJ3vSrL3r9r-66" value="+ agregarFactura(Factura): void" style="text;strokeColor=none;fillColor=none;align=left;verticalAlign=top;spacingLeft=4;spacingRight=4;overflow=hidden;rotatable=0;points=[[0,0.5],[1,0.5]];portConstraint=eastwest;whiteSpace=wrap;html=1;" vertex="1" parent="hAaeV_pmWm-LTA3YUwsU-32">
          <mxGeometry y="164" width="260" height="26" as="geometry" />
        </mxCell>
        <mxCell id="EMDGs7AWyQJ3vSrL3r9r-29" value="+ agregarProductos(List&amp;lt;Producto&amp;gt;): void" style="text;strokeColor=none;fillColor=none;align=left;verticalAlign=top;spacingLeft=4;spacingRight=4;overflow=hidden;rotatable=0;points=[[0,0.5],[1,0.5]];portConstraint=eastwest;whiteSpace=wrap;html=1;" vertex="1" parent="hAaeV_pmWm-LTA3YUwsU-32">
          <mxGeometry y="190" width="260" height="26" as="geometry" />
        </mxCell>
        <mxCell id="EMDGs7AWyQJ3vSrL3r9r-67" value="+ agregarFacturas(List&amp;lt;Factura&amp;gt;): void" style="text;strokeColor=none;fillColor=none;align=left;verticalAlign=top;spacingLeft=4;spacingRight=4;overflow=hidden;rotatable=0;points=[[0,0.5],[1,0.5]];portConstraint=eastwest;whiteSpace=wrap;html=1;" vertex="1" parent="hAaeV_pmWm-LTA3YUwsU-32">
          <mxGeometry y="216" width="260" height="26" as="geometry" />
        </mxCell>
        <mxCell id="hAaeV_pmWm-LTA3YUwsU-35" value="+ montoAPagar(Caja): Float" style="text;strokeColor=none;fillColor=none;align=left;verticalAlign=top;spacingLeft=4;spacingRight=4;overflow=hidden;rotatable=0;points=[[0,0.5],[1,0.5]];portConstraint=eastwest;whiteSpace=wrap;html=1;" vertex="1" parent="hAaeV_pmWm-LTA3YUwsU-32">
          <mxGeometry y="242" width="260" height="26" as="geometry" />
        </mxCell>
        <mxCell id="hAaeV_pmWm-LTA3YUwsU-36" value="" style="endArrow=open;endFill=1;endSize=12;html=1;rounded=0;exitX=0.5;exitY=0;exitDx=0;exitDy=0;" edge="1" parent="1" source="hAaeV_pmWm-LTA3YUwsU-32" target="hAaeV_pmWm-LTA3YUwsU-26">
          <mxGeometry width="160" relative="1" as="geometry">
            <mxPoint x="60" y="162" as="sourcePoint" />
            <mxPoint x="220" y="162" as="targetPoint" />
          </mxGeometry>
        </mxCell>
        <mxCell id="hAaeV_pmWm-LTA3YUwsU-37" value="&amp;nbsp;&amp;lt;&amp;lt; montoAPagar &amp;gt;&amp;gt;&amp;nbsp;" style="edgeLabel;html=1;align=center;verticalAlign=middle;resizable=0;points=[];" vertex="1" connectable="0" parent="hAaeV_pmWm-LTA3YUwsU-36">
          <mxGeometry x="-0.0117" y="2" relative="1" as="geometry">
            <mxPoint as="offset" />
          </mxGeometry>
        </mxCell>
        <mxCell id="EMDGs7AWyQJ3vSrL3r9r-9" value="&lt;font style=&quot;font-size: 18px;&quot;&gt;*&lt;/font&gt;" style="endArrow=block;endFill=1;html=1;edgeStyle=orthogonalEdgeStyle;align=left;verticalAlign=top;rounded=0;entryX=0.154;entryY=1.115;entryDx=0;entryDy=0;entryPerimeter=0;" edge="1" parent="1" source="hAaeV_pmWm-LTA3YUwsU-9" target="hAaeV_pmWm-LTA3YUwsU-35">
          <mxGeometry x="-0.8885" y="-32" relative="1" as="geometry">
            <mxPoint x="70" y="600" as="sourcePoint" />
            <mxPoint x="70" y="430" as="targetPoint" />
            <Array as="points">
              <mxPoint x="70" y="622" />
            </Array>
            <mxPoint as="offset" />
          </mxGeometry>
        </mxCell>
        <mxCell id="EMDGs7AWyQJ3vSrL3r9r-10" value="&lt;font style=&quot;font-size: 14px;&quot;&gt;1&lt;/font&gt;" style="edgeLabel;resizable=0;html=1;align=left;verticalAlign=bottom;" connectable="0" vertex="1" parent="EMDGs7AWyQJ3vSrL3r9r-9">
          <mxGeometry x="-1" relative="1" as="geometry">
            <mxPoint x="-90" y="-102" as="offset" />
          </mxGeometry>
        </mxCell>
        <mxCell id="EMDGs7AWyQJ3vSrL3r9r-13" value="Descuento" style="swimlane;fontStyle=1;align=center;verticalAlign=top;childLayout=stackLayout;horizontal=1;startSize=26;horizontalStack=0;resizeParent=1;resizeParentMax=0;resizeLast=0;collapsible=1;marginBottom=0;whiteSpace=wrap;html=1;" vertex="1" parent="1">
          <mxGeometry x="514" y="870" width="160" height="164" as="geometry" />
        </mxCell>
        <mxCell id="EMDGs7AWyQJ3vSrL3r9r-14" value="- concepto: String" style="text;strokeColor=none;fillColor=none;align=left;verticalAlign=top;spacingLeft=4;spacingRight=4;overflow=hidden;rotatable=0;points=[[0,0.5],[1,0.5]];portConstraint=eastwest;whiteSpace=wrap;html=1;" vertex="1" parent="EMDGs7AWyQJ3vSrL3r9r-13">
          <mxGeometry y="26" width="160" height="26" as="geometry" />
        </mxCell>
        <mxCell id="EMDGs7AWyQJ3vSrL3r9r-17" value="- descuento: float" style="text;strokeColor=none;fillColor=none;align=left;verticalAlign=top;spacingLeft=4;spacingRight=4;overflow=hidden;rotatable=0;points=[[0,0.5],[1,0.5]];portConstraint=eastwest;whiteSpace=wrap;html=1;" vertex="1" parent="EMDGs7AWyQJ3vSrL3r9r-13">
          <mxGeometry y="52" width="160" height="26" as="geometry" />
        </mxCell>
        <mxCell id="EMDGs7AWyQJ3vSrL3r9r-15" value="" style="line;strokeWidth=1;fillColor=none;align=left;verticalAlign=middle;spacingTop=-1;spacingLeft=3;spacingRight=3;rotatable=0;labelPosition=right;points=[];portConstraint=eastwest;strokeColor=inherit;" vertex="1" parent="EMDGs7AWyQJ3vSrL3r9r-13">
          <mxGeometry y="78" width="160" height="8" as="geometry" />
        </mxCell>
        <mxCell id="EMDGs7AWyQJ3vSrL3r9r-16" value="+ new(String, float)" style="text;strokeColor=none;fillColor=none;align=left;verticalAlign=top;spacingLeft=4;spacingRight=4;overflow=hidden;rotatable=0;points=[[0,0.5],[1,0.5]];portConstraint=eastwest;whiteSpace=wrap;html=1;" vertex="1" parent="EMDGs7AWyQJ3vSrL3r9r-13">
          <mxGeometry y="86" width="160" height="26" as="geometry" />
        </mxCell>
        <mxCell id="EMDGs7AWyQJ3vSrL3r9r-22" value="+ getConcepto: String" style="text;strokeColor=none;fillColor=none;align=left;verticalAlign=top;spacingLeft=4;spacingRight=4;overflow=hidden;rotatable=0;points=[[0,0.5],[1,0.5]];portConstraint=eastwest;whiteSpace=wrap;html=1;" vertex="1" parent="EMDGs7AWyQJ3vSrL3r9r-13">
          <mxGeometry y="112" width="160" height="26" as="geometry" />
        </mxCell>
        <mxCell id="EMDGs7AWyQJ3vSrL3r9r-21" value="+ getDescuento: float" style="text;strokeColor=none;fillColor=none;align=left;verticalAlign=top;spacingLeft=4;spacingRight=4;overflow=hidden;rotatable=0;points=[[0,0.5],[1,0.5]];portConstraint=eastwest;whiteSpace=wrap;html=1;" vertex="1" parent="EMDGs7AWyQJ3vSrL3r9r-13">
          <mxGeometry y="138" width="160" height="26" as="geometry" />
        </mxCell>
        <mxCell id="EMDGs7AWyQJ3vSrL3r9r-23" value="&lt;font style=&quot;font-size: 14px;&quot;&gt;1&lt;/font&gt;" style="endArrow=block;endFill=1;html=1;edgeStyle=orthogonalEdgeStyle;align=left;verticalAlign=top;rounded=0;exitX=0;exitY=0.5;exitDx=0;exitDy=0;entryX=1.012;entryY=0.931;entryDx=0;entryDy=0;entryPerimeter=0;" edge="1" parent="1" source="EMDGs7AWyQJ3vSrL3r9r-16" target="EMDGs7AWyQJ3vSrL3r9r-35">
          <mxGeometry x="0.7695" y="-30" relative="1" as="geometry">
            <mxPoint x="574" y="957" as="sourcePoint" />
            <mxPoint x="414" y="977" as="targetPoint" />
            <mxPoint x="1" as="offset" />
          </mxGeometry>
        </mxCell>
        <mxCell id="EMDGs7AWyQJ3vSrL3r9r-24" value="&lt;font style=&quot;font-size: 18px;&quot;&gt;*&lt;/font&gt;" style="edgeLabel;resizable=0;html=1;align=left;verticalAlign=bottom;" connectable="0" vertex="1" parent="EMDGs7AWyQJ3vSrL3r9r-23">
          <mxGeometry x="-1" relative="1" as="geometry">
            <mxPoint x="-20" as="offset" />
          </mxGeometry>
        </mxCell>
        <mxCell id="EMDGs7AWyQJ3vSrL3r9r-26" value="Extends" style="endArrow=block;endSize=16;endFill=0;html=1;rounded=0;exitX=0.75;exitY=0;exitDx=0;exitDy=0;entryX=0.205;entryY=1.1;entryDx=0;entryDy=0;entryPerimeter=0;" edge="1" parent="1" source="hAaeV_pmWm-LTA3YUwsU-15" target="hAaeV_pmWm-LTA3YUwsU-30">
          <mxGeometry width="160" relative="1" as="geometry">
            <mxPoint x="100" y="990.99" as="sourcePoint" />
            <mxPoint x="230" y="870" as="targetPoint" />
          </mxGeometry>
        </mxCell>
        <mxCell id="EMDGs7AWyQJ3vSrL3r9r-27" value="Extends" style="endArrow=block;endSize=16;endFill=0;html=1;rounded=0;entryX=0.628;entryY=1.069;entryDx=0;entryDy=0;entryPerimeter=0;" edge="1" parent="1" target="hAaeV_pmWm-LTA3YUwsU-30">
          <mxGeometry width="160" relative="1" as="geometry">
            <mxPoint x="330" y="1040.99" as="sourcePoint" />
            <mxPoint x="328.5" y="910.002" as="targetPoint" />
          </mxGeometry>
        </mxCell>
        <mxCell id="EMDGs7AWyQJ3vSrL3r9r-38" value="" style="endArrow=open;endFill=1;endSize=12;html=1;rounded=0;entryX=0.745;entryY=1.023;entryDx=0;entryDy=0;entryPerimeter=0;exitX=0.575;exitY=-0.002;exitDx=0;exitDy=0;exitPerimeter=0;" edge="1" parent="1" source="hAaeV_pmWm-LTA3YUwsU-9" target="hAaeV_pmWm-LTA3YUwsU-31">
          <mxGeometry width="160" relative="1" as="geometry">
            <mxPoint x="360" y="440" as="sourcePoint" />
            <mxPoint x="520" y="440" as="targetPoint" />
          </mxGeometry>
        </mxCell>
        <mxCell id="EMDGs7AWyQJ3vSrL3r9r-39" value="&amp;lt;&amp;lt; registrar &amp;gt;&amp;gt;" style="edgeLabel;html=1;align=center;verticalAlign=middle;resizable=0;points=[];" connectable="0" vertex="1" parent="EMDGs7AWyQJ3vSrL3r9r-38">
          <mxGeometry x="0.198" relative="1" as="geometry">
            <mxPoint as="offset" />
          </mxGeometry>
        </mxCell>
        <mxCell id="EMDGs7AWyQJ3vSrL3r9r-40" value="&lt;i&gt;Factura&lt;/i&gt;" style="swimlane;fontStyle=0;childLayout=stackLayout;horizontal=1;startSize=26;fillColor=none;horizontalStack=0;resizeParent=1;resizeParentMax=0;resizeLast=0;collapsible=1;marginBottom=0;whiteSpace=wrap;html=1;" vertex="1" parent="1">
          <mxGeometry x="514" y="470" width="140" height="104" as="geometry" />
        </mxCell>
        <mxCell id="EMDGs7AWyQJ3vSrL3r9r-41" value="---" style="text;strokeColor=none;fillColor=none;align=left;verticalAlign=top;spacingLeft=4;spacingRight=4;overflow=hidden;rotatable=0;points=[[0,0.5],[1,0.5]];portConstraint=eastwest;whiteSpace=wrap;html=1;" vertex="1" parent="EMDGs7AWyQJ3vSrL3r9r-40">
          <mxGeometry y="26" width="140" height="26" as="geometry" />
        </mxCell>
        <mxCell id="EMDGs7AWyQJ3vSrL3r9r-42" value="&lt;i&gt;+ getCostoNeto: float&lt;/i&gt;" style="text;strokeColor=none;fillColor=none;align=left;verticalAlign=top;spacingLeft=4;spacingRight=4;overflow=hidden;rotatable=0;points=[[0,0.5],[1,0.5]];portConstraint=eastwest;whiteSpace=wrap;html=1;" vertex="1" parent="EMDGs7AWyQJ3vSrL3r9r-40">
          <mxGeometry y="52" width="140" height="26" as="geometry" />
        </mxCell>
        <mxCell id="EMDGs7AWyQJ3vSrL3r9r-45" value="+ registrar(Caja): float" style="text;strokeColor=none;fillColor=none;align=left;verticalAlign=top;spacingLeft=4;spacingRight=4;overflow=hidden;rotatable=0;points=[[0,0.5],[1,0.5]];portConstraint=eastwest;whiteSpace=wrap;html=1;" vertex="1" parent="EMDGs7AWyQJ3vSrL3r9r-40">
          <mxGeometry y="78" width="140" height="26" as="geometry" />
        </mxCell>
        <mxCell id="EMDGs7AWyQJ3vSrL3r9r-46" value="Agencia" style="swimlane;fontStyle=1;align=center;verticalAlign=top;childLayout=stackLayout;horizontal=1;startSize=26;horizontalStack=0;resizeParent=1;resizeParentMax=0;resizeLast=0;collapsible=1;marginBottom=0;whiteSpace=wrap;html=1;" vertex="1" parent="1">
          <mxGeometry x="740" y="499" width="180" height="86" as="geometry" />
        </mxCell>
        <mxCell id="EMDGs7AWyQJ3vSrL3r9r-47" value="---" style="text;strokeColor=none;fillColor=none;align=left;verticalAlign=top;spacingLeft=4;spacingRight=4;overflow=hidden;rotatable=0;points=[[0,0.5],[1,0.5]];portConstraint=eastwest;whiteSpace=wrap;html=1;" vertex="1" parent="EMDGs7AWyQJ3vSrL3r9r-46">
          <mxGeometry y="26" width="180" height="26" as="geometry" />
        </mxCell>
        <mxCell id="EMDGs7AWyQJ3vSrL3r9r-48" value="" style="line;strokeWidth=1;fillColor=none;align=left;verticalAlign=middle;spacingTop=-1;spacingLeft=3;spacingRight=3;rotatable=0;labelPosition=right;points=[];portConstraint=eastwest;strokeColor=inherit;" vertex="1" parent="EMDGs7AWyQJ3vSrL3r9r-46">
          <mxGeometry y="52" width="180" height="8" as="geometry" />
        </mxCell>
        <mxCell id="EMDGs7AWyQJ3vSrL3r9r-49" value="+ registrarPago(Factura): void" style="text;strokeColor=none;fillColor=none;align=left;verticalAlign=top;spacingLeft=4;spacingRight=4;overflow=hidden;rotatable=0;points=[[0,0.5],[1,0.5]];portConstraint=eastwest;whiteSpace=wrap;html=1;" vertex="1" parent="EMDGs7AWyQJ3vSrL3r9r-46">
          <mxGeometry y="60" width="180" height="26" as="geometry" />
        </mxCell>
        <mxCell id="EMDGs7AWyQJ3vSrL3r9r-50" value="Servicio" style="swimlane;fontStyle=1;align=center;verticalAlign=top;childLayout=stackLayout;horizontal=1;startSize=26;horizontalStack=0;resizeParent=1;resizeParentMax=0;resizeLast=0;collapsible=1;marginBottom=0;whiteSpace=wrap;html=1;" vertex="1" parent="1">
          <mxGeometry x="530" y="650" width="170" height="112" as="geometry" />
        </mxCell>
        <mxCell id="EMDGs7AWyQJ3vSrL3r9r-51" value="- costoPorUnidad: float" style="text;strokeColor=none;fillColor=none;align=left;verticalAlign=top;spacingLeft=4;spacingRight=4;overflow=hidden;rotatable=0;points=[[0,0.5],[1,0.5]];portConstraint=eastwest;whiteSpace=wrap;html=1;" vertex="1" parent="EMDGs7AWyQJ3vSrL3r9r-50">
          <mxGeometry y="26" width="170" height="26" as="geometry" />
        </mxCell>
        <mxCell id="EMDGs7AWyQJ3vSrL3r9r-59" value="- unidadesConsumidas: int" style="text;strokeColor=none;fillColor=none;align=left;verticalAlign=top;spacingLeft=4;spacingRight=4;overflow=hidden;rotatable=0;points=[[0,0.5],[1,0.5]];portConstraint=eastwest;whiteSpace=wrap;html=1;" vertex="1" parent="EMDGs7AWyQJ3vSrL3r9r-50">
          <mxGeometry y="52" width="170" height="26" as="geometry" />
        </mxCell>
        <mxCell id="EMDGs7AWyQJ3vSrL3r9r-52" value="" style="line;strokeWidth=1;fillColor=none;align=left;verticalAlign=middle;spacingTop=-1;spacingLeft=3;spacingRight=3;rotatable=0;labelPosition=right;points=[];portConstraint=eastwest;strokeColor=inherit;" vertex="1" parent="EMDGs7AWyQJ3vSrL3r9r-50">
          <mxGeometry y="78" width="170" height="8" as="geometry" />
        </mxCell>
        <mxCell id="EMDGs7AWyQJ3vSrL3r9r-53" value="+ getCostoNeto: float" style="text;strokeColor=none;fillColor=none;align=left;verticalAlign=top;spacingLeft=4;spacingRight=4;overflow=hidden;rotatable=0;points=[[0,0.5],[1,0.5]];portConstraint=eastwest;whiteSpace=wrap;html=1;" vertex="1" parent="EMDGs7AWyQJ3vSrL3r9r-50">
          <mxGeometry y="86" width="170" height="26" as="geometry" />
        </mxCell>
        <mxCell id="EMDGs7AWyQJ3vSrL3r9r-54" value="Impuesto" style="swimlane;fontStyle=1;align=center;verticalAlign=top;childLayout=stackLayout;horizontal=1;startSize=26;horizontalStack=0;resizeParent=1;resizeParentMax=0;resizeLast=0;collapsible=1;marginBottom=0;whiteSpace=wrap;html=1;" vertex="1" parent="1">
          <mxGeometry x="730" y="650" width="160" height="86" as="geometry" />
        </mxCell>
        <mxCell id="EMDGs7AWyQJ3vSrL3r9r-55" value="- tasaDelServicio: float" style="text;strokeColor=none;fillColor=none;align=left;verticalAlign=top;spacingLeft=4;spacingRight=4;overflow=hidden;rotatable=0;points=[[0,0.5],[1,0.5]];portConstraint=eastwest;whiteSpace=wrap;html=1;" vertex="1" parent="EMDGs7AWyQJ3vSrL3r9r-54">
          <mxGeometry y="26" width="160" height="26" as="geometry" />
        </mxCell>
        <mxCell id="EMDGs7AWyQJ3vSrL3r9r-56" value="" style="line;strokeWidth=1;fillColor=none;align=left;verticalAlign=middle;spacingTop=-1;spacingLeft=3;spacingRight=3;rotatable=0;labelPosition=right;points=[];portConstraint=eastwest;strokeColor=inherit;" vertex="1" parent="EMDGs7AWyQJ3vSrL3r9r-54">
          <mxGeometry y="52" width="160" height="8" as="geometry" />
        </mxCell>
        <mxCell id="EMDGs7AWyQJ3vSrL3r9r-57" value="+ getCostoNeto: float" style="text;strokeColor=none;fillColor=none;align=left;verticalAlign=top;spacingLeft=4;spacingRight=4;overflow=hidden;rotatable=0;points=[[0,0.5],[1,0.5]];portConstraint=eastwest;whiteSpace=wrap;html=1;" vertex="1" parent="EMDGs7AWyQJ3vSrL3r9r-54">
          <mxGeometry y="60" width="160" height="26" as="geometry" />
        </mxCell>
        <mxCell id="EMDGs7AWyQJ3vSrL3r9r-60" value="Extends" style="endArrow=block;endSize=16;endFill=0;html=1;rounded=0;entryX=0.675;entryY=0.962;entryDx=0;entryDy=0;entryPerimeter=0;exitX=0.372;exitY=-0.03;exitDx=0;exitDy=0;exitPerimeter=0;" edge="1" parent="1" source="EMDGs7AWyQJ3vSrL3r9r-50">
          <mxGeometry width="160" relative="1" as="geometry">
            <mxPoint x="594.75" y="704.99" as="sourcePoint" />
            <mxPoint x="593.25" y="574.002" as="targetPoint" />
          </mxGeometry>
        </mxCell>
        <mxCell id="EMDGs7AWyQJ3vSrL3r9r-61" value="Extends" style="endArrow=block;endSize=16;endFill=0;html=1;rounded=0;entryX=0.989;entryY=0.869;entryDx=0;entryDy=0;entryPerimeter=0;exitX=0.185;exitY=-0.04;exitDx=0;exitDy=0;exitPerimeter=0;" edge="1" parent="1" source="EMDGs7AWyQJ3vSrL3r9r-54" target="EMDGs7AWyQJ3vSrL3r9r-45">
          <mxGeometry width="160" relative="1" as="geometry">
            <mxPoint x="771.5" y="620.99" as="sourcePoint" />
            <mxPoint x="770" y="490.00199999999995" as="targetPoint" />
            <Array as="points" />
          </mxGeometry>
        </mxCell>
        <mxCell id="EMDGs7AWyQJ3vSrL3r9r-62" value="" style="endArrow=block;dashed=1;endFill=0;endSize=12;html=1;rounded=0;entryX=1.006;entryY=0.137;entryDx=0;entryDy=0;entryPerimeter=0;exitX=0;exitY=0.147;exitDx=0;exitDy=0;exitPerimeter=0;" edge="1" parent="1" source="EMDGs7AWyQJ3vSrL3r9r-46" target="EMDGs7AWyQJ3vSrL3r9r-40">
          <mxGeometry width="160" relative="1" as="geometry">
            <mxPoint x="560" y="390" as="sourcePoint" />
            <mxPoint x="720" y="390" as="targetPoint" />
          </mxGeometry>
        </mxCell>
        <mxCell id="EMDGs7AWyQJ3vSrL3r9r-63" value="&amp;nbsp;Implements&amp;nbsp;" style="edgeLabel;html=1;align=center;verticalAlign=middle;resizable=0;points=[];" connectable="0" vertex="1" parent="EMDGs7AWyQJ3vSrL3r9r-62">
          <mxGeometry x="0.0553" y="-4" relative="1" as="geometry">
            <mxPoint as="offset" />
          </mxGeometry>
        </mxCell>
        <mxCell id="EMDGs7AWyQJ3vSrL3r9r-68" value="Cliente" style="endArrow=block;endFill=1;html=1;edgeStyle=orthogonalEdgeStyle;align=left;verticalAlign=top;rounded=0;exitX=0.383;exitY=-0.04;exitDx=0;exitDy=0;exitPerimeter=0;entryX=1;entryY=0.5;entryDx=0;entryDy=0;" edge="1" parent="1" source="EMDGs7AWyQJ3vSrL3r9r-40" target="EMDGs7AWyQJ3vSrL3r9r-29">
          <mxGeometry x="-0.0289" y="-23" relative="1" as="geometry">
            <mxPoint x="570" y="410" as="sourcePoint" />
            <mxPoint x="400" y="410" as="targetPoint" />
            <mxPoint as="offset" />
          </mxGeometry>
        </mxCell>
        <mxCell id="EMDGs7AWyQJ3vSrL3r9r-69" value="&lt;font style=&quot;font-size: 14px;&quot;&gt;1&lt;/font&gt;" style="edgeLabel;resizable=0;html=1;align=left;verticalAlign=bottom;" connectable="0" vertex="1" parent="EMDGs7AWyQJ3vSrL3r9r-68">
          <mxGeometry x="-1" relative="1" as="geometry">
            <mxPoint x="-268" y="-56" as="offset" />
          </mxGeometry>
        </mxCell>
        <mxCell id="EMDGs7AWyQJ3vSrL3r9r-70" value="&lt;font style=&quot;font-size: 18px;&quot;&gt;*&lt;/font&gt;" style="text;html=1;align=center;verticalAlign=middle;resizable=0;points=[];autosize=1;strokeColor=none;fillColor=none;" vertex="1" parent="1">
          <mxGeometry x="545" y="423" width="30" height="40" as="geometry" />
        </mxCell>
        <mxCell id="EMDGs7AWyQJ3vSrL3r9r-71" value="" style="endArrow=open;endFill=1;endSize=12;html=1;rounded=0;exitX=0.869;exitY=-0.01;exitDx=0;exitDy=0;entryX=0.915;entryY=1.162;entryDx=0;entryDy=0;entryPerimeter=0;exitPerimeter=0;" edge="1" parent="1" source="EMDGs7AWyQJ3vSrL3r9r-40" target="hAaeV_pmWm-LTA3YUwsU-31">
          <mxGeometry width="160" relative="1" as="geometry">
            <mxPoint x="550" y="310" as="sourcePoint" />
            <mxPoint x="710" y="310" as="targetPoint" />
          </mxGeometry>
        </mxCell>
        <mxCell id="EMDGs7AWyQJ3vSrL3r9r-72" value="&amp;lt;&amp;lt; registrar &amp;gt;&amp;gt;" style="edgeLabel;html=1;align=center;verticalAlign=middle;resizable=0;points=[];" connectable="0" vertex="1" parent="EMDGs7AWyQJ3vSrL3r9r-71">
          <mxGeometry x="0.1523" y="1" relative="1" as="geometry">
            <mxPoint as="offset" />
          </mxGeometry>
        </mxCell>
      </root>
    </mxGraphModel>
  </diagram>
</mxfile>
